<svg xmlns="http://www.w3.org/2000/svg" xmlns:xlink="http://www.w3.org/1999/xlink" contentStyleType="text/css" height="1201px" preserveAspectRatio="none" style="width:729px;height:1201px;background:#FFFFFF;" version="1.1" viewBox="0 0 729 1201" width="729px" zoomAndPan="magnify"><title>MCP &#26041;&#26696; C &#37492;&#26435;&#27969;&#31243;&#65288;OAuth 2.1 + PKCE + RS256&#65289;</title><defs/><g><text fill="#000000" font-family="sans-serif" font-size="14" font-weight="bold" lengthAdjust="spacing" textLength="348.1201" x="186.7048" y="29.5332">MCP &#26041;&#26696; C &#37492;&#26435;&#27969;&#31243;&#65288;OAuth 2.1 + PKCE + RS256&#65289;</text><rect fill="#FFFFFF" height="46.7031" style="stroke:#181818;stroke-width:1.0;" width="10" x="322.7197" y="353.2891"/><rect fill="#FFFFFF" height="30.3516" style="stroke:#181818;stroke-width:1.0;" width="10" x="322.7197" y="491.0469"/><rect fill="#FFFFFF" height="83.0547" style="stroke:#181818;stroke-width:1.0;" width="10" x="322.7197" y="612.4531"/><rect fill="#FFFFFF" height="46.7031" style="stroke:#181818;stroke-width:1.0;" width="10" x="322.7197" y="786.5625"/><rect fill="#FFFFFF" height="46.7031" style="stroke:#181818;stroke-width:1.0;" width="10" x="472.5986" y="215.5313"/><rect fill="#FFFFFF" height="30.3516" style="stroke:#181818;stroke-width:1.0;" width="10" x="472.5986" y="292.5859"/><rect fill="#FFFFFF" height="115.7578" style="stroke:#181818;stroke-width:1.0;" width="10" x="472.5986" y="907.9688"/><line style="stroke:#181818;stroke-width:0.5;stroke-dasharray:5.0,5.0;" x1="46" x2="46" y1="138.8281" y2="1101.4297"/><line style="stroke:#181818;stroke-width:0.5;stroke-dasharray:5.0,5.0;" x1="327.7197" x2="327.7197" y1="138.8281" y2="1101.4297"/><line style="stroke:#181818;stroke-width:0.5;stroke-dasharray:5.0,5.0;" x1="477.0986" x2="477.0986" y1="138.8281" y2="1101.4297"/><text fill="#000000" font-family="sans-serif" font-size="14" lengthAdjust="spacing" textLength="77" x="5" y="118.1426">MCP &#23458;&#25143;&#31471;</text><text fill="#000000" font-family="sans-serif" font-size="14" lengthAdjust="spacing" textLength="38.1104" x="24.4448" y="135.752">(Trae)</text><ellipse cx="46.5" cy="52.1094" fill="#E2E2F0" rx="8" ry="8" style="stroke:#181818;stroke-width:0.5;"/><path d="M46.5,60.1094 L46.5,87.1094 M33.5,68.1094 L59.5,68.1094 M46.5,87.1094 L33.5,102.1094 M46.5,87.1094 L59.5,102.1094 " fill="none" style="stroke:#181818;stroke-width:0.5;"/><text fill="#000000" font-family="sans-serif" font-size="14" lengthAdjust="spacing" textLength="77" x="5" y="1114.9629">MCP &#23458;&#25143;&#31471;</text><text fill="#000000" font-family="sans-serif" font-size="14" lengthAdjust="spacing" textLength="38.1104" x="24.4448" y="1132.5723">(Trae)</text><ellipse cx="46.5" cy="1144.1484" fill="#E2E2F0" rx="8" ry="8" style="stroke:#181818;stroke-width:0.5;"/><path d="M46.5,1152.1484 L46.5,1179.1484 M33.5,1160.1484 L59.5,1160.1484 M46.5,1179.1484 L33.5,1194.1484 M46.5,1179.1484 L59.5,1194.1484 " fill="none" style="stroke:#181818;stroke-width:0.5;"/><rect fill="#E2E2F0" height="49.2188" rx="2.5" ry="2.5" style="stroke:#181818;stroke-width:0.5;" width="84" x="285.7197" y="88.6094"/><text fill="#000000" font-family="sans-serif" font-size="14" lengthAdjust="spacing" textLength="52.1445" x="301.6475" y="110.1426">gateway</text><text fill="#000000" font-family="sans-serif" font-size="14" lengthAdjust="spacing" textLength="70" x="292.7197" y="127.752">&#25480;&#26435;&#26381;&#21153;&#22120;</text><rect fill="#E2E2F0" height="49.2188" rx="2.5" ry="2.5" style="stroke:#181818;stroke-width:0.5;" width="84" x="285.7197" y="1100.4297"/><text fill="#000000" font-family="sans-serif" font-size="14" lengthAdjust="spacing" textLength="52.1445" x="301.6475" y="1121.9629">gateway</text><text fill="#000000" font-family="sans-serif" font-size="14" lengthAdjust="spacing" textLength="70" x="292.7197" y="1139.5723">&#25480;&#26435;&#26381;&#21153;&#22120;</text><rect fill="#E2E2F0" height="49.2188" rx="2.5" ry="2.5" style="stroke:#181818;stroke-width:0.5;" width="119" x="418.0986" y="88.6094"/><text fill="#000000" font-family="sans-serif" font-size="14" lengthAdjust="spacing" textLength="22.5723" x="466.3125" y="110.1426">ops</text><text fill="#000000" font-family="sans-serif" font-size="14" lengthAdjust="spacing" textLength="105" x="425.0986" y="127.752">MCP &#36164;&#28304;&#26381;&#21153;&#22120;</text><rect fill="#E2E2F0" height="49.2188" rx="2.5" ry="2.5" style="stroke:#181818;stroke-width:0.5;" width="119" x="418.0986" y="1100.4297"/><text fill="#000000" font-family="sans-serif" font-size="14" lengthAdjust="spacing" textLength="22.5723" x="466.3125" y="1121.9629">ops</text><text fill="#000000" font-family="sans-serif" font-size="14" lengthAdjust="spacing" textLength="105" x="425.0986" y="1139.5723">MCP &#36164;&#28304;&#26381;&#21153;&#22120;</text><rect fill="#FFFFFF" height="46.7031" style="stroke:#181818;stroke-width:1.0;" width="10" x="322.7197" y="353.2891"/><rect fill="#FFFFFF" height="30.3516" style="stroke:#181818;stroke-width:1.0;" width="10" x="322.7197" y="491.0469"/><rect fill="#FFFFFF" height="83.0547" style="stroke:#181818;stroke-width:1.0;" width="10" x="322.7197" y="612.4531"/><rect fill="#FFFFFF" height="46.7031" style="stroke:#181818;stroke-width:1.0;" width="10" x="322.7197" y="786.5625"/><rect fill="#FFFFFF" height="46.7031" style="stroke:#181818;stroke-width:1.0;" width="10" x="472.5986" y="215.5313"/><rect fill="#FFFFFF" height="30.3516" style="stroke:#181818;stroke-width:1.0;" width="10" x="472.5986" y="292.5859"/><rect fill="#FFFFFF" height="115.7578" style="stroke:#181818;stroke-width:1.0;" width="10" x="472.5986" y="907.9688"/><rect fill="#EEEEEE" height="3" style="stroke:#EEEEEE;stroke-width:1.0;" width="722.5298" x="0" y="170.0039"/><line style="stroke:#000000;stroke-width:1.0;" x1="0" x2="722.5298" y1="170.0039" y2="170.0039"/><line style="stroke:#000000;stroke-width:1.0;" x1="0" x2="722.5298" y1="173.0039" y2="173.0039"/><rect fill="#EEEEEE" height="24.3516" style="stroke:#000000;stroke-width:2.0;" width="252.6211" x="234.9543" y="158.8281"/><text fill="#000000" font-family="sans-serif" font-size="13" font-weight="bold" lengthAdjust="spacing" textLength="235.0093" x="240.9543" y="176.3232">1. MCP OAuth &#21457;&#29616;&#65288;&#26080; token&#65292;SSE&#65289;</text><polygon fill="#181818" points="460.5986,211.5313,470.5986,215.5313,460.5986,219.5313,464.5986,215.5313" style="stroke:#181818;stroke-width:1.0;"/><line style="stroke:#181818;stroke-width:1.0;" x1="46.5" x2="466.5986" y1="215.5313" y2="215.5313"/><text fill="#000000" font-family="sans-serif" font-size="13" lengthAdjust="spacing" textLength="200.8398" x="53.5" y="210.6748">GET /mcp/sse&#65288;&#26080; Authorization&#65289;</text><polygon fill="#181818" points="57.5,258.2344,47.5,262.2344,57.5,266.2344,53.5,262.2344" style="stroke:#181818;stroke-width:1.0;"/><line style="stroke:#181818;stroke-width:1.0;stroke-dasharray:2.0,2.0;" x1="51.5" x2="476.5986" y1="262.2344" y2="262.2344"/><text fill="#000000" font-family="sans-serif" font-size="13" lengthAdjust="spacing" textLength="153.5308" x="63.5" y="241.0264">401 + WWW-Authenticate:</text><text fill="#000000" font-family="sans-serif" font-size="13" lengthAdjust="spacing" textLength="402.0986" x="63.5" y="257.3779">Bearer resource_metadata="&#8230;/.well-known/oauth-protected-resource"</text><polygon fill="#181818" points="460.5986,288.5859,470.5986,292.5859,460.5986,296.5859,464.5986,292.5859" style="stroke:#181818;stroke-width:1.0;"/><line style="stroke:#181818;stroke-width:1.0;" x1="46.5" x2="466.5986" y1="292.5859" y2="292.5859"/><text fill="#000000" font-family="sans-serif" font-size="13" lengthAdjust="spacing" textLength="378.5806" x="53.5" y="287.7295">GET /.well-known/oauth-protected-resource&#65288;PRM&#65292;RFC 9728&#65289;</text><polygon fill="#181818" points="57.5,318.9375,47.5,322.9375,57.5,326.9375,53.5,322.9375" style="stroke:#181818;stroke-width:1.0;"/><line style="stroke:#181818;stroke-width:1.0;stroke-dasharray:2.0,2.0;" x1="51.5" x2="476.5986" y1="322.9375" y2="322.9375"/><text fill="#000000" font-family="sans-serif" font-size="13" lengthAdjust="spacing" textLength="389.4478" x="63.5" y="318.0811">{"authorization_servers":[&#8230;/.well-known/oauth-authorization-server]}</text><polygon fill="#181818" points="310.7197,349.2891,320.7197,353.2891,310.7197,357.2891,314.7197,353.2891" style="stroke:#181818;stroke-width:1.0;"/><line style="stroke:#181818;stroke-width:1.0;" x1="46.5" x2="316.7197" y1="353.2891" y2="353.2891"/><text fill="#000000" font-family="sans-serif" font-size="13" lengthAdjust="spacing" textLength="257.2197" x="53.5" y="348.4326">GET /.well-known/oauth-authorization-server</text><polygon fill="#181818" points="57.5,395.9922,47.5,399.9922,57.5,403.9922,53.5,399.9922" style="stroke:#181818;stroke-width:1.0;"/><line style="stroke:#181818;stroke-width:1.0;stroke-dasharray:2.0,2.0;" x1="51.5" x2="326.7197" y1="399.9922" y2="399.9922"/><text fill="#000000" font-family="sans-serif" font-size="13" lengthAdjust="spacing" textLength="104" x="63.5" y="378.7842">&#25480;&#26435;&#26381;&#21153;&#22120;&#20803;&#25968;&#25454;</text><text fill="#000000" font-family="sans-serif" font-size="13" lengthAdjust="spacing" textLength="174.1226" x="63.5" y="395.1357">(authorize/token/register &#31471;&#28857;)</text><rect fill="#EEEEEE" height="3" style="stroke:#EEEEEE;stroke-width:1.0;" width="722.5298" x="0" y="429.168"/><line style="stroke:#000000;stroke-width:1.0;" x1="0" x2="722.5298" y1="429.168" y2="429.168"/><line style="stroke:#000000;stroke-width:1.0;" x1="0" x2="722.5298" y1="432.168" y2="432.168"/><rect fill="#EEEEEE" height="24.3516" style="stroke:#000000;stroke-width:2.0;" width="211.9707" x="255.2795" y="417.9922"/><text fill="#000000" font-family="sans-serif" font-size="13" font-weight="bold" lengthAdjust="spacing" textLength="194.3589" x="261.2795" y="435.4873">2. &#21160;&#24577;&#23458;&#25143;&#31471;&#27880;&#20876;&#65288;RFC 7591&#65289;</text><polygon fill="#181818" points="310.7197,487.0469,320.7197,491.0469,310.7197,495.0469,314.7197,491.0469" style="stroke:#181818;stroke-width:1.0;"/><line style="stroke:#181818;stroke-width:1.0;" x1="46.5" x2="316.7197" y1="491.0469" y2="491.0469"/><text fill="#000000" font-family="sans-serif" font-size="13" lengthAdjust="spacing" textLength="129.3398" x="53.5" y="469.8389">POST /oauth2/register</text><text fill="#000000" font-family="sans-serif" font-size="13" lengthAdjust="spacing" textLength="146.999" x="53.5" y="486.1904">(redirect_uris=[&#22238;&#29615;&#22238;&#35843;])</text><polygon fill="#181818" points="57.5,517.3984,47.5,521.3984,57.5,525.3984,53.5,521.3984" style="stroke:#181818;stroke-width:1.0;"/><line style="stroke:#181818;stroke-width:1.0;stroke-dasharray:2.0,2.0;" x1="51.5" x2="326.7197" y1="521.3984" y2="521.3984"/><text fill="#000000" font-family="sans-serif" font-size="13" lengthAdjust="spacing" textLength="84.2017" x="63.5" y="516.542">201 + client_id</text><rect fill="#EEEEEE" height="3" style="stroke:#EEEEEE;stroke-width:1.0;" width="722.5298" x="0" y="550.5742"/><line style="stroke:#000000;stroke-width:1.0;" x1="0" x2="722.5298" y1="550.5742" y2="550.5742"/><line style="stroke:#000000;stroke-width:1.0;" x1="0" x2="722.5298" y1="553.5742" y2="553.5742"/><rect fill="#EEEEEE" height="24.3516" style="stroke:#000000;stroke-width:2.0;" width="186.2056" x="268.1621" y="539.3984"/><text fill="#000000" font-family="sans-serif" font-size="13" font-weight="bold" lengthAdjust="spacing" textLength="168.5938" x="274.1621" y="556.8936">3. &#25480;&#26435;&#65288;PKCE S256 &#24378;&#21046;&#65289;</text><polygon fill="#181818" points="310.7197,608.4531,320.7197,612.4531,310.7197,616.4531,314.7197,612.4531" style="stroke:#181818;stroke-width:1.0;"/><line style="stroke:#181818;stroke-width:1.0;" x1="46.5" x2="316.7197" y1="612.4531" y2="612.4531"/><text fill="#000000" font-family="sans-serif" font-size="13" lengthAdjust="spacing" textLength="130.7998" x="53.5" y="591.2451">GET /oauth2/authorize</text><text fill="#000000" font-family="sans-serif" font-size="13" lengthAdjust="spacing" textLength="162.2461" x="53.5" y="607.5967">(client_id + code_challenge)</text><path d="M337,625.4531 L337,667.4531 L504,667.4531 L504,635.4531 L494,625.4531 L337,625.4531 " fill="#FEFFDD" style="stroke:#181818;stroke-width:0.5;"/><path d="M494,625.4531 L494,635.4531 L504,635.4531 L494,625.4531 " fill="#FEFFDD" style="stroke:#181818;stroke-width:0.5;"/><text fill="#000000" font-family="sans-serif" font-size="13" lengthAdjust="spacing" textLength="146.2627" x="343" y="643.9482">&#26412;&#22320;&#39564;&#35777;=mock &#29992;&#25143;&#27169;&#24335;</text><text fill="#000000" font-family="sans-serif" font-size="13" lengthAdjust="spacing" textLength="111.5918" x="343" y="660.2998">&#29983;&#20135;=&#30495;&#23454;&#19977;&#26041;&#30331;&#24405;</text><polygon fill="#181818" points="57.5,691.5078,47.5,695.5078,57.5,699.5078,53.5,695.5078" style="stroke:#181818;stroke-width:1.0;"/><line style="stroke:#181818;stroke-width:1.0;stroke-dasharray:2.0,2.0;" x1="51.5" x2="326.7197" y1="695.5078" y2="695.5078"/><text fill="#000000" font-family="sans-serif" font-size="13" lengthAdjust="spacing" textLength="209.5806" x="63.5" y="690.6514">302 Location=redirect_uri?code=xxx</text><rect fill="#EEEEEE" height="3" style="stroke:#EEEEEE;stroke-width:1.0;" width="722.5298" x="0" y="724.6836"/><line style="stroke:#000000;stroke-width:1.0;" x1="0" x2="722.5298" y1="724.6836" y2="724.6836"/><line style="stroke:#000000;stroke-width:1.0;" x1="0" x2="722.5298" y1="727.6836" y2="727.6836"/><rect fill="#EEEEEE" height="24.3516" style="stroke:#000000;stroke-width:2.0;" width="83.7544" x="319.3877" y="713.5078"/><text fill="#000000" font-family="sans-serif" font-size="13" font-weight="bold" lengthAdjust="spacing" textLength="66.1426" x="325.3877" y="731.0029">4. &#25442; token</text><polygon fill="#181818" points="310.7197,782.5625,320.7197,786.5625,310.7197,790.5625,314.7197,786.5625" style="stroke:#181818;stroke-width:1.0;"/><line style="stroke:#181818;stroke-width:1.0;" x1="46.5" x2="316.7197" y1="786.5625" y2="786.5625"/><text fill="#000000" font-family="sans-serif" font-size="13" lengthAdjust="spacing" textLength="117.7935" x="53.5" y="765.3545">POST /oauth2/token</text><text fill="#000000" font-family="sans-serif" font-size="13" lengthAdjust="spacing" textLength="126.0898" x="53.5" y="781.7061">(code + code_verifier)</text><polygon fill="#181818" points="57.5,829.2656,47.5,833.2656,57.5,837.2656,53.5,833.2656" style="stroke:#181818;stroke-width:1.0;"/><line style="stroke:#181818;stroke-width:1.0;stroke-dasharray:2.0,2.0;" x1="51.5" x2="326.7197" y1="833.2656" y2="833.2656"/><text fill="#000000" font-family="sans-serif" font-size="13" lengthAdjust="spacing" textLength="220.0161" x="63.5" y="812.0576">200 + access_token(RS256 &#31169;&#38053;&#31614;&#21517;)</text><text fill="#000000" font-family="sans-serif" font-size="13" lengthAdjust="spacing" textLength="90.6953" x="63.5" y="828.4092">+ refresh_token</text><rect fill="#EEEEEE" height="3" style="stroke:#EEEEEE;stroke-width:1.0;" width="722.5298" x="0" y="862.4414"/><line style="stroke:#000000;stroke-width:1.0;" x1="0" x2="722.5298" y1="862.4414" y2="862.4414"/><line style="stroke:#000000;stroke-width:1.0;" x1="0" x2="722.5298" y1="865.4414" y2="865.4414"/><rect fill="#EEEEEE" height="24.3516" style="stroke:#000000;stroke-width:2.0;" width="281.8774" x="220.3262" y="851.2656"/><text fill="#000000" font-family="sans-serif" font-size="13" font-weight="bold" lengthAdjust="spacing" textLength="264.2656" x="226.3262" y="868.7607">5. MCP &#24037;&#20855;&#35843;&#29992;&#65288;&#20844;&#38053;&#39564;&#31614;&#65292;SSE &#38271;&#36830;&#25509;&#65289;</text><polygon fill="#181818" points="460.5986,903.9688,470.5986,907.9688,460.5986,911.9688,464.5986,907.9688" style="stroke:#181818;stroke-width:1.0;"/><line style="stroke:#181818;stroke-width:1.0;" x1="46.5" x2="466.5986" y1="907.9688" y2="907.9688"/><text fill="#000000" font-family="sans-serif" font-size="13" lengthAdjust="spacing" textLength="219.2861" x="53.5" y="903.1123">GET /mcp/sse + Bearer access_token</text><path d="M487,920.9688 L487,979.9688 L717,979.9688 L717,930.9688 L707,920.9688 L487,920.9688 " fill="#FEFFDD" style="stroke:#181818;stroke-width:0.5;"/><path d="M707,920.9688 L707,930.9688 L717,930.9688 L707,920.9688 " fill="#FEFFDD" style="stroke:#181818;stroke-width:0.5;"/><text fill="#000000" font-family="sans-serif" font-size="13" lengthAdjust="spacing" textLength="95.3608" x="493" y="939.4639">RS256 &#20844;&#38053;&#39564;&#31614;</text><text fill="#000000" font-family="sans-serif" font-size="13" lengthAdjust="spacing" textLength="209.5298" x="493" y="955.8154">&#36890;&#36807;&#21518;&#35299;&#26512; userId/accountId/clientId</text><text fill="#000000" font-family="sans-serif" font-size="13" lengthAdjust="spacing" textLength="101.8799" x="493" y="972.167">&#25918;&#20837; ThreadLocal</text><polygon fill="#181818" points="57.5,1019.7266,47.5,1023.7266,57.5,1027.7266,53.5,1023.7266" style="stroke:#181818;stroke-width:1.0;"/><line style="stroke:#181818;stroke-width:1.0;stroke-dasharray:2.0,2.0;" x1="51.5" x2="476.5986" y1="1023.7266" y2="1023.7266"/><text fill="#000000" font-family="sans-serif" font-size="13" lengthAdjust="spacing" textLength="175.2334" x="63.5" y="1002.5186">200 SSE &#24314;&#31435; + endpoint &#20107;&#20214;</text><text fill="#000000" font-family="sans-serif" font-size="13" lengthAdjust="spacing" textLength="235.9043" x="63.5" y="1018.8701">&#8594; POST /mcp/message &#35843; initialize/tools</text><line style="stroke:#181818;stroke-width:1.0;" x1="46.5" x2="88.5" y1="1070.4297" y2="1070.4297"/><line style="stroke:#181818;stroke-width:1.0;" x1="88.5" x2="88.5" y1="1070.4297" y2="1083.4297"/><line style="stroke:#181818;stroke-width:1.0;" x1="47.5" x2="88.5" y1="1083.4297" y2="1083.4297"/><polygon fill="#181818" points="57.5,1079.4297,47.5,1083.4297,57.5,1087.4297,53.5,1083.4297" style="stroke:#181818;stroke-width:1.0;"/><text fill="#000000" font-family="sans-serif" font-size="13" lengthAdjust="spacing" textLength="122.1035" x="53.5" y="1049.2217">access_token &#36807;&#26399;&#21518;</text><text fill="#000000" font-family="sans-serif" font-size="13" lengthAdjust="spacing" textLength="229.7153" x="53.5" y="1065.5732">&#33258;&#21160;&#29992; refresh_token &#32493;&#26399;&#65288;&#29992;&#25143;&#26080;&#24863;&#65289;</text><!--SRC=[ZLHTJnj757tthnZv9K6HRN12ao1jgXRHAagZ843Y8HjPezt17h7CMhFhc3QAX4j8J03ZHb2KXFAHYcBb0v3QG6De-2yHCsi_vI_qpgvnlSL0NcolzzvpppdtumAwtTkFvAyVv7eHzQBwz5_ojqdvlk1LPkJIhgZEYvSVFnyKxtoJSpCe6Uz2ibI426-j047e4kg_rTi7NmE3oUwlKFtrhFSEmgSZBdKjSZfq234Ceh8Zs71jZg8gNsozaiKzxysspYuESKmweWWxoB0eOMuaYxbB3Ph5p4NHD7P97l-eiu2YN9uJJzV5yugVaCw7W-siepE5Ntl_I5RBuM1u6Obe6kgA-n82gcB-5w-q0ypbqXfoxL72FX_C3Wxs0M6aQP58G0d5RgXqr8E-xnj2YJ4Zct0SqiXIE3QdFs6Nsam91PtqFj3sAwgq6AGtW7hGbKvbpl3mS4mbmd_KWDWUdNrBC2SSSUBOEMwGr1XniObTh4K_JVoHYEU9PSL6cPrd2Hj3PYpBRPSOBZ5ZnodHY4b2nTlJ_n8eqDO_S1ky6FYk5rs_chnslh07KTpgHCeX_3xXJhJdRdl-eUXO47tluHaIqldJ5RG3-uylp0aaXzZ-Rvp4rAHSt95pMp2GnrWauGz4WfCqTLne3Sohz_E7ZbQAWAncAXb7ucb5JXIQWot_h8Z7is2ZCl1gz_MkanFbw-c_CmY2V179PYKWmOb9EVGabUFKqUwAbojUQHi-QpkJzphEL9Rq1onuJ56p3TlByOPyrMMrfVwUYuEgAEwUGjEtlS6owG_GR9PH9MsJf8mCjYp2qYHCai608KxJ6HVP8m6aN7uhbdVWkjIs2zgOROmYRw42vidAkZYOrvcti7fKtTIyvLMnjNBqzpJS7E_vllXdyOJYovr9z8Dj-BtNMetxMb7IniV7svXm1KoOUnNi_BcDyQEKNC0xLWeJHaSeuUTrenCIi64GnqdvC1U3i-fj5khFDk2oYl9SXyukmUAFmFPbWg0sXBk3koNsDiJK7em1k0Nz4rDl0URuHglJXUgBXxN35LdQ-98Z1kGQXwULOtZLmyqBC08HhTLrLfzuKJjy8igbskRlSgMCSh27Dyq40DivviAlWCXD4wxvmaSnjO66CfnWK_NEEdbGb7LAZzYlUczcW2XXPjQcyEweEdEqlwkpJu-VDVgar8m1VPmc2Bn1b56NOYjOOjjopZWhpNgj1Y0G8c7ooYMTrPwyXkK6kyCjGjx-EmY17ZJcTcbDFbfLT_9V]--></g></svg>