<svg xmlns="http://www.w3.org/2000/svg" xmlns:xlink="http://www.w3.org/1999/xlink" contentStyleType="text/css" height="811px" preserveAspectRatio="none" style="width:541px;height:811px;background:#FFFFFF;" version="1.1" viewBox="0 0 541 811" width="541px" zoomAndPan="magnify"><defs/><g><line style="stroke:#181818;stroke-width:0.5;stroke-dasharray:5.0,5.0;" x1="22" x2="22" y1="82.6094" y2="729.6406"/><line style="stroke:#181818;stroke-width:0.5;stroke-dasharray:5.0,5.0;" x1="133.5532" x2="133.5532" y1="82.6094" y2="729.6406"/><line style="stroke:#181818;stroke-width:0.5;stroke-dasharray:5.0,5.0;" x1="309.71" x2="309.71" y1="82.6094" y2="729.6406"/><line style="stroke:#181818;stroke-width:0.5;stroke-dasharray:5.0,5.0;" x1="418.9307" x2="418.9307" y1="82.6094" y2="729.6406"/><text fill="#000000" font-family="sans-serif" font-size="14" lengthAdjust="spacing" textLength="28" x="5" y="79.5332">&#23458;&#25143;</text><ellipse cx="22" cy="13.5" fill="#E2E2F0" rx="8" ry="8" style="stroke:#181818;stroke-width:0.5;"/><path d="M22,21.5 L22,48.5 M9,29.5 L35,29.5 M22,48.5 L9,63.5 M22,48.5 L35,63.5 " fill="none" style="stroke:#181818;stroke-width:0.5;"/><text fill="#000000" font-family="sans-serif" font-size="14" lengthAdjust="spacing" textLength="28" x="5" y="743.1738">&#23458;&#25143;</text><ellipse cx="22" cy="754.75" fill="#E2E2F0" rx="8" ry="8" style="stroke:#181818;stroke-width:0.5;"/><path d="M22,762.75 L22,789.75 M9,770.75 L35,770.75 M22,789.75 L9,804.75 M22,789.75 L35,804.75 " fill="none" style="stroke:#181818;stroke-width:0.5;"/><rect fill="#E2E2F0" height="31.6094" rx="2.5" ry="2.5" style="stroke:#181818;stroke-width:0.5;" width="73.1172" x="97.5532" y="50"/><text fill="#000000" font-family="sans-serif" font-size="14" lengthAdjust="spacing" textLength="59.1172" x="104.5532" y="71.5332">AI &#23458;&#25143;&#31471;</text><rect fill="#E2E2F0" height="31.6094" rx="2.5" ry="2.5" style="stroke:#181818;stroke-width:0.5;" width="73.1172" x="97.5532" y="728.6406"/><text fill="#000000" font-family="sans-serif" font-size="14" lengthAdjust="spacing" textLength="59.1172" x="104.5532" y="750.1738">AI &#23458;&#25143;&#31471;</text><rect fill="#E2E2F0" height="31.6094" rx="2.5" ry="2.5" style="stroke:#181818;stroke-width:0.5;" width="90.2344" x="264.71" y="50"/><text fill="#000000" font-family="sans-serif" font-size="14" lengthAdjust="spacing" textLength="76.2344" x="271.71" y="71.5332">MCP Server</text><rect fill="#E2E2F0" height="31.6094" rx="2.5" ry="2.5" style="stroke:#181818;stroke-width:0.5;" width="90.2344" x="264.71" y="728.6406"/><text fill="#000000" font-family="sans-serif" font-size="14" lengthAdjust="spacing" textLength="76.2344" x="271.71" y="750.1738">MCP Server</text><rect fill="#E2E2F0" height="31.6094" rx="2.5" ry="2.5" style="stroke:#181818;stroke-width:0.5;" width="84" x="376.9307" y="50"/><text fill="#000000" font-family="sans-serif" font-size="14" lengthAdjust="spacing" textLength="70" x="383.9307" y="71.5332">&#25480;&#26435;&#26381;&#21153;&#22120;</text><rect fill="#E2E2F0" height="31.6094" rx="2.5" ry="2.5" style="stroke:#181818;stroke-width:0.5;" width="84" x="376.9307" y="728.6406"/><text fill="#000000" font-family="sans-serif" font-size="14" lengthAdjust="spacing" textLength="70" x="383.9307" y="750.1738">&#25480;&#26435;&#26381;&#21153;&#22120;</text><rect fill="#EEEEEE" height="3" style="stroke:#EEEEEE;stroke-width:1.0;" width="534.1035" x="0" y="113.7852"/><line style="stroke:#000000;stroke-width:1.0;" x1="0" x2="534.1035" y1="113.7852" y2="113.7852"/><line style="stroke:#000000;stroke-width:1.0;" x1="0" x2="534.1035" y1="116.7852" y2="116.7852"/><rect fill="#EEEEEE" height="24.3516" style="stroke:#000000;stroke-width:2.0;" width="165.0806" x="184.5115" y="102.6094"/><text fill="#000000" font-family="sans-serif" font-size="13" font-weight="bold" lengthAdjust="spacing" textLength="147.4688" x="190.5115" y="120.1045">&#39318;&#27425;&#37197;&#32622;&#65306;&#23458;&#25143;&#21482;&#20570;&#19968;&#27425;</text><polygon fill="#181818" points="122.1118,155.3125,132.1118,159.3125,122.1118,163.3125,126.1118,159.3125" style="stroke:#181818;stroke-width:1.0;"/><line style="stroke:#181818;stroke-width:1.0;" x1="22" x2="128.1118" y1="159.3125" y2="159.3125"/><text fill="#000000" font-family="sans-serif" font-size="13" lengthAdjust="spacing" textLength="88.1118" x="29" y="154.4561">&#37197;&#32622; MCP &#22320;&#22336;</text><polygon fill="#181818" points="297.8271,185.6641,307.8271,189.6641,297.8271,193.6641,301.8271,189.6641" style="stroke:#181818;stroke-width:1.0;"/><line style="stroke:#181818;stroke-width:1.0;" x1="134.1118" x2="303.8271" y1="189.6641" y2="189.6641"/><text fill="#000000" font-family="sans-serif" font-size="13" lengthAdjust="spacing" textLength="104" x="141.1118" y="184.8076">&#36830;&#25509;&#35831;&#27714;&#12289;&#26080;&#20973;&#35777;</text><polygon fill="#181818" points="145.1118,216.0156,135.1118,220.0156,145.1118,224.0156,141.1118,220.0156" style="stroke:#181818;stroke-width:1.0;"/><line style="stroke:#181818;stroke-width:1.0;stroke-dasharray:2.0,2.0;" x1="139.1118" x2="308.8271" y1="220.0156" y2="220.0156"/><text fill="#000000" font-family="sans-serif" font-size="13" lengthAdjust="spacing" textLength="116.3018" x="151.1118" y="215.1592">401 &#24182;&#36820;&#22238;&#25480;&#26435;&#22320;&#22336;</text><polygon fill="#181818" points="406.9307,246.3672,416.9307,250.3672,406.9307,254.3672,410.9307,250.3672" style="stroke:#181818;stroke-width:1.0;"/><line style="stroke:#181818;stroke-width:1.0;" x1="134.1118" x2="412.9307" y1="250.3672" y2="250.3672"/><text fill="#000000" font-family="sans-serif" font-size="13" lengthAdjust="spacing" textLength="104" x="141.1118" y="245.5107">&#25171;&#24320;&#27983;&#35272;&#22120;&#25480;&#26435;&#39029;</text><polygon fill="#181818" points="406.9307,276.7188,416.9307,280.7188,406.9307,284.7188,410.9307,280.7188" style="stroke:#181818;stroke-width:1.0;"/><line style="stroke:#181818;stroke-width:1.0;" x1="22" x2="412.9307" y1="280.7188" y2="280.7188"/><text fill="#000000" font-family="sans-serif" font-size="13" lengthAdjust="spacing" textLength="91" x="29" y="275.8623">&#30331;&#24405;&#24182;&#21516;&#24847;&#25480;&#26435;</text><polygon fill="#181818" points="145.1118,307.0703,135.1118,311.0703,145.1118,315.0703,141.1118,311.0703" style="stroke:#181818;stroke-width:1.0;"/><line style="stroke:#181818;stroke-width:1.0;stroke-dasharray:2.0,2.0;" x1="139.1118" x2="417.9307" y1="311.0703" y2="311.0703"/><text fill="#000000" font-family="sans-serif" font-size="13" lengthAdjust="spacing" textLength="70.8018" x="151.1118" y="306.2139">&#25480;&#26435;&#30721; code</text><polygon fill="#181818" points="406.9307,337.4219,416.9307,341.4219,406.9307,345.4219,410.9307,341.4219" style="stroke:#181818;stroke-width:1.0;"/><line style="stroke:#181818;stroke-width:1.0;" x1="134.1118" x2="412.9307" y1="341.4219" y2="341.4219"/><text fill="#000000" font-family="sans-serif" font-size="13" lengthAdjust="spacing" textLength="135.8398" x="141.1118" y="336.5654">code &#21152; PKCE &#25442; token</text><polygon fill="#181818" points="145.1118,367.7734,135.1118,371.7734,145.1118,375.7734,141.1118,371.7734" style="stroke:#181818;stroke-width:1.0;"/><line style="stroke:#181818;stroke-width:1.0;stroke-dasharray:2.0,2.0;" x1="139.1118" x2="417.9307" y1="371.7734" y2="371.7734"/><text fill="#000000" font-family="sans-serif" font-size="13" lengthAdjust="spacing" textLength="179.207" x="151.1118" y="366.917">access_token &#21152; refresh_token</text><rect fill="#EEEEEE" height="3" style="stroke:#EEEEEE;stroke-width:1.0;" width="534.1035" x="0" y="400.9492"/><line style="stroke:#000000;stroke-width:1.0;" x1="0" x2="534.1035" y1="400.9492" y2="400.9492"/><line style="stroke:#000000;stroke-width:1.0;" x1="0" x2="534.1035" y1="403.9492" y2="403.9492"/><rect fill="#EEEEEE" height="24.3516" style="stroke:#000000;stroke-width:2.0;" width="205.2993" x="164.4021" y="389.7734"/><text fill="#000000" font-family="sans-serif" font-size="13" font-weight="bold" lengthAdjust="spacing" textLength="187.6875" x="170.4021" y="407.2686">&#26085;&#24120;&#35843;&#29992;&#65306;&#33258;&#21160;&#32493;&#26399;&#12289;&#23458;&#25143;&#26080;&#24863;</text><polygon fill="#181818" points="297.8271,442.4766,307.8271,446.4766,297.8271,450.4766,301.8271,446.4766" style="stroke:#181818;stroke-width:1.0;"/><line style="stroke:#181818;stroke-width:1.0;" x1="134.1118" x2="303.8271" y1="446.4766" y2="446.4766"/><text fill="#000000" font-family="sans-serif" font-size="13" lengthAdjust="spacing" textLength="138.7153" x="141.1118" y="441.6201">&#25658;&#24102; access_token &#35843;&#29992;</text><polygon fill="#181818" points="145.1118,472.8281,135.1118,476.8281,145.1118,480.8281,141.1118,476.8281" style="stroke:#181818;stroke-width:1.0;"/><line style="stroke:#181818;stroke-width:1.0;stroke-dasharray:2.0,2.0;" x1="139.1118" x2="308.8271" y1="476.8281" y2="476.8281"/><text fill="#000000" font-family="sans-serif" font-size="13" lengthAdjust="spacing" textLength="52" x="151.1118" y="471.9717">&#36820;&#22238;&#25968;&#25454;</text><rect fill="#EEEEEE" height="3" style="stroke:#EEEEEE;stroke-width:1.0;" width="534.1035" x="0" y="506.0039"/><line style="stroke:#000000;stroke-width:1.0;" x1="0" x2="534.1035" y1="506.0039" y2="506.0039"/><line style="stroke:#000000;stroke-width:1.0;" x1="0" x2="534.1035" y1="509.0039" y2="509.0039"/><rect fill="#EEEEEE" height="24.3516" style="stroke:#000000;stroke-width:2.0;" width="146.7231" x="193.6902" y="494.8281"/><text fill="#000000" font-family="sans-serif" font-size="13" font-weight="bold" lengthAdjust="spacing" textLength="129.1113" x="199.6902" y="512.3232">access_token &#36807;&#26399;&#21518;</text><polygon fill="#181818" points="406.9307,547.5313,416.9307,551.5313,406.9307,555.5313,410.9307,551.5313" style="stroke:#181818;stroke-width:1.0;"/><line style="stroke:#181818;stroke-width:1.0;" x1="134.1118" x2="412.9307" y1="551.5313" y2="551.5313"/><text fill="#000000" font-family="sans-serif" font-size="13" lengthAdjust="spacing" textLength="151.7153" x="141.1118" y="546.6748">&#29992; refresh_token &#33258;&#21160;&#25442;&#21462;</text><polygon fill="#181818" points="145.1118,577.8828,135.1118,581.8828,145.1118,585.8828,141.1118,581.8828" style="stroke:#181818;stroke-width:1.0;"/><line style="stroke:#181818;stroke-width:1.0;stroke-dasharray:2.0,2.0;" x1="139.1118" x2="417.9307" y1="581.8828" y2="581.8828"/><text fill="#000000" font-family="sans-serif" font-size="13" lengthAdjust="spacing" textLength="260.8188" x="151.1118" y="577.0264">&#26032; access_token &#21644;&#26032; refresh_token&#12289;&#26087;&#20316;&#24223;</text><polygon fill="#181818" points="297.8271,608.2344,307.8271,612.2344,297.8271,616.2344,301.8271,612.2344" style="stroke:#181818;stroke-width:1.0;"/><line style="stroke:#181818;stroke-width:1.0;" x1="134.1118" x2="303.8271" y1="612.2344" y2="612.2344"/><text fill="#000000" font-family="sans-serif" font-size="13" lengthAdjust="spacing" textLength="151.7153" x="141.1118" y="607.3779">&#25658;&#24102;&#26032; access_token &#35843;&#29992;</text><polygon fill="#181818" points="145.1118,638.5859,135.1118,642.5859,145.1118,646.5859,141.1118,642.5859" style="stroke:#181818;stroke-width:1.0;"/><line style="stroke:#181818;stroke-width:1.0;stroke-dasharray:2.0,2.0;" x1="139.1118" x2="308.8271" y1="642.5859" y2="642.5859"/><text fill="#000000" font-family="sans-serif" font-size="13" lengthAdjust="spacing" textLength="52" x="151.1118" y="637.7295">&#36820;&#22238;&#25968;&#25454;</text><path d="M308,655.5859 L308,714.5859 L529,714.5859 L529,665.5859 L519,655.5859 L308,655.5859 " fill="#FEFFDD" style="stroke:#181818;stroke-width:0.5;"/><path d="M519,655.5859 L519,665.5859 L529,665.5859 L519,655.5859 " fill="#FEFFDD" style="stroke:#181818;stroke-width:0.5;"/><text fill="#000000" font-family="sans-serif" font-size="13" lengthAdjust="spacing" textLength="200.1035" x="314" y="674.0811">access_token &#30701;&#26399;&#26377;&#25928;&#65292;&#20445;&#35777;&#23433;&#20840;</text><text fill="#000000" font-family="sans-serif" font-size="13" lengthAdjust="spacing" textLength="200.1035" x="314" y="690.4326">refresh_token &#33258;&#21160;&#32493;&#26399;&#65292;&#20445;&#35777;&#20307;&#39564;</text><text fill="#000000" font-family="sans-serif" font-size="13" lengthAdjust="spacing" textLength="182" x="314" y="706.7842">&#23545;&#23458;&#25143;&#32780;&#35328;&#37197;&#32622;&#19968;&#27425;&#12289;&#38271;&#26399;&#26377;&#25928;</text><!--SRC=[ZLFBQjjG5DpVhpXa7sYXgu8B9NHHIY7G3oX2kIMchMHaDMkvIV03-K5ZEoILOpkGHBY9xIxIE8cDFgO-Hz8glz0hNJL4iGlTdfaxSsPqfAYcRW0EZwbqnNAAOMRLR4xHJ5Xv-JeP-pz6Aw3aGVsKvPgP9hrTMuTttDZYHapvhERIEDLArDacfugLFXwuCKdvOcuobib0UDgcytwuM_LdmxlfeNJ3-W0BX_E99I38P9YSmkgBn1-UWtm1aJSwO-nOB844IMmW685tHBMJO7H5Fx_-jWgqtyFYHJ0gi0XUVQZrxCbJmEjVWTV4xqTosmNDQ651fV8UJYswh0Td9P55aiF-vOCL4wP_S8kpbf35XaqxTSbaCPWobu3VAu2gR_15nsWAMEd1-fkrLq3LOp3rZrnRegIeAi_dtyTm_CBW7moUtvIJk6tQFy7991Xl-qrNj1qK1rXn_TiBShgY8fb154KxtQZsnurIumOdfsaVgRNOQL9cQqpLOMoTVkKLXIKsQccRlzKrtVJk81SLuR7UNjPXU_me_JSxcgL4uXiucyySlEd-8zg2pl-bqtIJWoxkNvvrIi7lHkMIKwPMwMvgpxsEE44Sbd7NPSiooeznpvpFziA1pN1qBJzEODc1QydZb_-7Y1Msl7iFnhKDY1Rw0m00]--></g></svg>